<svg xmlns="http://www.w3.org/2000/svg" viewBox="0 0 126.54 126.54"><defs><style>.cls-1{isolation:isolate;}.cls-2{fill:#ffb66f;}.cls-3{fill:none;stroke:#000;stroke-linecap:round;stroke-miterlimit:10;stroke-width:2.67px;opacity:0.4;}.cls-4{fill:#fff;}.cls-5{fill:#57473e;}.cls-6{opacity:0.08;mix-blend-mode:multiply;}.cls-7{fill:#515451;}.cls-8{fill:#626662;}.cls-9{fill:#5d5c58;}.cls-10{fill:#6b6a65;}.cls-11{fill:#ffce9e;}</style></defs><title>Untitled-1</title><g class="cls-1"><g id="Layer_1" data-name="Layer 1"><circle class="cls-2" cx="63.09" cy="67.12" r="47.11"/><path class="cls-3" d="M75.41,80.63A16.57,16.57,0,0,1,50.77,80"/><path class="cls-4" d="M45.88,71.79c0,3.18-2.14,3.29-5.06,3.23l-1.88,0-1.88,0c-2.92.06-5.05,0-5.05-3.23A6.94,6.94,0,0,1,45.88,71.79Z"/><path class="cls-5" d="M42.12,72.46A3.15,3.15,0,0,1,40.82,75l-1.88,0-1.88,0A3.18,3.18,0,1,1,42.12,72.46Z"/><circle class="cls-4" cx="36.48" cy="70.45" r="1.19"/><path class="cls-4" d="M94.17,71.79C94.17,75,92,75.08,89.11,75l-1.88,0-1.88,0c-2.92.06-5.05,0-5.05-3.23A6.94,6.94,0,0,1,94.17,71.79Z"/><path class="cls-5" d="M90.4,72.46A3.15,3.15,0,0,1,89.11,75l-1.88,0-1.88,0A3.18,3.18,0,1,1,90.4,72.46Z"/><circle class="cls-4" cx="84.77" cy="70.45" r="1.19"/><path class="cls-6" d="M110.12,67c0,0.16,0,.33,0,0.49a46.39,46.39,0,0,1-4.68,20l0,0.06C97.11,72.44,79.36,69.1,63,63.42c-13.55-4.7-28.65-20.55-35.9-28.88C27.08,34.48,27,34.41,27,34.35L27.23,34a2.05,2.05,0,0,1,.33-0.32l0.39-.3c26.63-19.87,54.91-14.22,70.88,3A46.81,46.81,0,0,1,110.12,67Z"/><path class="cls-7" d="M21.22,34C19.56,35.66,4.7,51.32,13.44,72.45a1.52,1.52,0,0,0,2.39.6c3.91-3.34,13.93-12.46,14.8-18.94S35.09,36,36.53,31.53a1.5,1.5,0,0,0-1.45-2c-2.59,0-7.45.71-13.53,4.19A1.58,1.58,0,0,0,21.22,34Z"/><path class="cls-8" d="M36.53,31.53l-0.33,1a1.56,1.56,0,0,0-1.12-.26c-2.76.39-7.86,1.72-13.89,6.23a1.59,1.59,0,0,0-.32.31c-1.36,1.74-12.23,16.38-6.61,34.45a1.55,1.55,0,0,1-.83-0.84C4.71,51.32,19.56,35.66,21.22,34a1.76,1.76,0,0,1,.33-0.25c6.07-3.49,10.93-4.14,13.52-4.19A1.5,1.5,0,0,1,36.53,31.53Z"/><path class="cls-9" d="M102.92,29.5a52.82,52.82,0,0,0-80.47,1.77,1.22,1.22,0,0,0,.25.35c5,5.11,25.31,25,42,29.18C82.64,65.27,102,67,110.94,84.17a1.48,1.48,0,0,0,1.25.82,50.62,50.62,0,0,0,2.5-7.58A52.87,52.87,0,0,0,102.92,29.5Z"/><path class="cls-10" d="M116.27,64.6a52.44,52.44,0,0,1-1.57,12.8,50.5,50.5,0,0,1-2.2,6.85c0.35-1.8.63-3.64,0.83-5.51a60.46,60.46,0,0,0-9.48-39.6,54.27,54.27,0,0,0-25-20.69A50.66,50.66,0,0,0,28.25,26a55.57,55.57,0,0,0-5.8,5.29A52.83,52.83,0,0,1,116.27,64.6Z"/><circle class="cls-11" cx="34.28" cy="80.64" r="1.61"/><circle class="cls-11" cx="91.9" cy="80.64" r="1.61"/></g></g></svg>