<svg xmlns="http://www.w3.org/2000/svg" xmlns:xlink="http://www.w3.org/1999/xlink" viewBox="0 0 843.15 877.55"><defs><style>.cls-1{fill:none;}.cls-2{clip-path:url(#clip-path);}.cls-3{opacity:0.25;}.cls-4{fill:#f8ca00;}</style><clipPath id="clip-path"><circle class="cls-1" cx="421.36" cy="438.65" r="215.42" transform="translate(-172.13 571.78) rotate(-58.79)"/></clipPath></defs><title>Asset 3</title><g id="Layer_2" data-name="Layer 2"><g id="Layer_9" data-name="Layer 9"><g class="cls-2"><g class="cls-3"><polygon class="cls-4" points="417.65 445.25 189.09 822.57 183.3 750.39 417.65 445.25"/><polygon class="cls-4" points="417.65 445.25 189.09 822.57 255.74 794.27 417.65 445.25"/><polygon class="cls-4" points="425.5 432.3 654.05 54.98 659.85 127.16 425.5 432.3"/><polygon class="cls-4" points="425.5 432.3 654.05 54.98 587.4 83.28 425.5 432.3"/></g><g class="cls-3"><polygon class="cls-4" points="423.8 445.64 553.25 845.63 494.82 809.41 423.8 445.64"/><polygon class="cls-4" points="423.8 445.64 553.25 845.63 577.2 775.34 423.8 445.64"/><polygon class="cls-4" points="419.35 431.91 289.9 31.92 348.33 68.14 419.35 431.91"/><polygon class="cls-4" points="419.35 431.91 289.9 31.92 265.94 102.22 419.35 431.91"/></g><g class="cls-3"><polygon class="cls-4" points="428.27 440.86 818.25 562.32 751.18 589.34 428.27 440.86"/><polygon class="cls-4" points="428.27 440.86 818.25 562.32 781.47 502.96 428.27 440.86"/><polygon class="cls-4" points="414.88 436.69 24.9 315.23 91.96 288.21 414.88 436.69"/><polygon class="cls-4" points="414.88 436.69 24.9 315.23 61.68 374.59 414.88 436.69"/></g><g class="cls-3"><polygon class="cls-4" points="427.7 434.51 784.55 185.98 759.34 255.89 427.7 434.51"/><polygon class="cls-4" points="427.7 434.51 784.55 185.98 714.73 182.26 427.7 434.51"/><polygon class="cls-4" points="415.45 443.04 58.6 691.57 83.8 621.66 415.45 443.04"/><polygon class="cls-4" points="415.45 443.04 58.6 691.57 128.42 695.29 415.45 443.04"/></g><g class="cls-3"><polygon class="cls-4" points="422.52 431.37 477.52 0 513.15 60.16 422.52 431.37"/><polygon class="cls-4" points="422.52 431.37 477.52 0 427.23 54.71 422.52 431.37"/><polygon class="cls-4" points="420.63 446.18 365.63 877.55 329.99 817.4 420.63 446.18"/><polygon class="cls-4" points="420.63 446.18 365.63 877.55 415.91 822.84 420.63 446.18"/></g><g class="cls-3"><polygon class="cls-4" points="416.62 433.81 128.36 144.43 198 149.53 416.62 433.81"/><polygon class="cls-4" points="416.62 433.81 128.36 144.43 135.48 216.38 416.62 433.81"/><polygon class="cls-4" points="426.52 443.74 714.78 733.13 645.14 728.02 426.52 443.74"/><polygon class="cls-4" points="426.52 443.74 714.78 733.13 707.67 661.17 426.52 443.74"/></g><g class="cls-3"><polygon class="cls-4" points="414.46 439.99 0 510.5 51.21 456.71 414.46 439.99"/><polygon class="cls-4" points="414.46 439.99 0 510.5 59.16 545.51 414.46 439.99"/><polygon class="cls-4" points="428.69 437.56 843.15 367.05 791.94 420.84 428.69 437.56"/><polygon class="cls-4" points="428.69 437.56 843.15 367.05 783.99 332.04 428.69 437.56"/></g></g></g></g></svg>