<svg xmlns="http://www.w3.org/2000/svg" viewBox="0 0 126.54 126.54"><defs><style>.cls-1{isolation:isolate;}.cls-2,.cls-3{fill:#f8ca00;}.cls-2{opacity:0.25;}.cls-4{fill:none;stroke:#f8ca00;stroke-miterlimit:10;stroke-width:3.43px;}.cls-4,.cls-5{mix-blend-mode:multiply;}.cls-6{fill:#fe8233;}</style></defs><title>Untitled-1</title><g class="cls-1"><g id="Layer_1" data-name="Layer 1"><circle class="cls-2" cx="63.73" cy="63.81" r="63.27"/><circle class="cls-3" cx="63.73" cy="63.81" r="44.03"/><circle class="cls-4" cx="63.73" cy="63.81" r="35.68"/><g class="cls-5"><path class="cls-6" d="M76,81a3.15,3.15,0,0,1-1,.16,3.51,3.51,0,0,1-1.49-.36l-9.57-5-9.52,5.1a3,3,0,0,1-.5.23,3.19,3.19,0,0,1-2.84-.41,3.26,3.26,0,0,1-1.29-3.12l1.76-10.67-7.82-7.47A3.17,3.17,0,0,1,44.9,54.2a3.08,3.08,0,0,1,.55-0.13l10.7-1.63,4.67-9.74a3.19,3.19,0,0,1,1.83-1.62,3.22,3.22,0,0,1,3.9,1.59l4.83,9.66,10.7,1.47a3.16,3.16,0,0,1,2.59,2.12,3.23,3.23,0,0,1-.81,3.24l-7.67,7.61L78.1,77.39A3.21,3.21,0,0,1,76,81"/></g></g></g></svg>