<svg id="Layer_1" data-name="Layer 1" xmlns="http://www.w3.org/2000/svg" xmlns:xlink="http://www.w3.org/1999/xlink" viewBox="0 0 20 20"><defs><style>.cls-1{fill:none;}.cls-2{clip-path:url(#clip-path);}.cls-3{fill:#001689;}.cls-4{fill:#ffce00;}</style><clipPath id="clip-path"><circle class="cls-1" cx="9.98" cy="10.04" r="9.73"/></clipPath></defs><title>Kano_Store-Flags-1</title><g class="cls-2"><rect class="cls-3" x="-4.62" y="0.3" width="29.04" height="19.53"/><polygon class="cls-4" points="4.35 5.73 4.59 6.48 5.38 6.48 4.75 6.94 4.99 7.69 4.35 7.23 3.71 7.69 3.96 6.94 3.32 6.48 4.11 6.48 4.35 5.73"/><polygon class="cls-4" points="6.63 3.41 6.87 4.16 7.66 4.16 7.02 4.62 7.27 5.37 6.63 4.91 5.99 5.37 6.24 4.62 5.6 4.16 6.38 4.16 6.63 3.41"/><polygon class="cls-4" points="9.87 2.54 10.12 3.29 10.9 3.29 10.27 3.75 10.51 4.5 9.87 4.03 9.24 4.5 9.48 3.75 8.84 3.29 9.63 3.29 9.87 2.54"/><polygon class="cls-4" points="13.08 3.42 13.33 4.16 14.11 4.16 13.48 4.63 13.72 5.38 13.08 4.91 12.45 5.38 12.69 4.63 12.05 4.16 12.84 4.16 13.08 3.42"/><polygon class="cls-4" points="15.45 5.78 15.69 6.53 16.48 6.53 15.84 6.99 16.08 7.74 15.45 7.28 14.81 7.74 15.05 6.99 14.41 6.53 15.2 6.53 15.45 5.78"/><polygon class="cls-4" points="16.32 9.02 16.56 9.77 17.35 9.77 16.71 10.23 16.96 10.98 16.32 10.52 15.68 10.98 15.93 10.23 15.29 9.77 16.08 9.77 16.32 9.02"/><polygon class="cls-4" points="15.44 12.28 15.69 13.03 16.47 13.03 15.84 13.49 16.08 14.24 15.44 13.78 14.8 14.24 15.05 13.49 14.41 13.03 15.2 13.03 15.44 12.28"/><polygon class="cls-4" points="13.08 14.62 13.32 15.37 14.11 15.37 13.47 15.84 13.72 16.59 13.08 16.12 12.44 16.59 12.69 15.84 12.05 15.37 12.84 15.37 13.08 14.62"/><polygon class="cls-4" points="9.88 15.48 10.13 16.23 10.91 16.23 10.28 16.7 10.52 17.44 9.88 16.98 9.24 17.44 9.49 16.7 8.85 16.23 9.64 16.23 9.88 15.48"/><polygon class="cls-4" points="6.64 14.61 6.88 15.36 7.67 15.36 7.03 15.82 7.27 16.57 6.64 16.11 6 16.57 6.24 15.82 5.61 15.36 6.39 15.36 6.64 14.61"/><polygon class="cls-4" points="4.32 12.26 4.57 13.01 5.35 13.01 4.72 13.47 4.96 14.22 4.32 13.76 3.68 14.22 3.93 13.47 3.29 13.01 4.08 13.01 4.32 12.26"/><polygon class="cls-4" points="3.44 8.96 3.68 9.72 4.48 9.72 3.83 10.19 4.08 10.94 3.44 10.47 2.79 10.94 3.04 10.19 2.39 9.72 3.19 9.72 3.44 8.96"/></g></svg>