<svg id="Layer_1" data-name="Layer 1" xmlns="http://www.w3.org/2000/svg" xmlns:xlink="http://www.w3.org/1999/xlink" viewBox="0 0 20 20"><defs><style>.cls-1{fill:#8dc6ff;}.cls-2{fill:#2e79ba;}</style><symbol id="New_Symbol_3" data-name="New Symbol 3" viewBox="0 0 234.56 234.79"><circle class="cls-1" cx="117.28" cy="117.28" r="109.28"/><path class="cls-2" d="M117.28,234.57A117.28,117.28,0,1,1,234.57,117.28,117.42,117.42,0,0,1,117.28,234.57Zm0-218.57A101.28,101.28,0,1,0,218.57,117.28,101.4,101.4,0,0,0,117.28,16Z"/><ellipse class="cls-1" cx="117.28" cy="117.51" rx="58.69" ry="109.28"/><path class="cls-2" d="M117.28,234.79c-37.4,0-66.69-51.52-66.69-117.28S79.89.23,117.28.23,184,51.75,184,117.51,154.68,234.79,117.28,234.79Zm0-218.57c-27.48,0-50.69,46.38-50.69,101.28s23.21,101.28,50.69,101.28S168,172.41,168,117.51,144.76,16.23,117.28,16.23Z"/><line class="cls-1" x1="7.67" y1="117.65" x2="226.67" y2="117.65"/><rect class="cls-2" x="7.67" y="109.65" width="219" height="16"/><line class="cls-1" x1="116.67" y1="7.65" x2="116.67" y2="226.65"/><rect class="cls-2" x="108.67" y="7.65" width="16" height="219"/><line class="cls-1" x1="18.67" y1="65.65" x2="214.67" y2="65.65"/><rect class="cls-2" x="18.67" y="62.65" width="196" height="5"/><line class="cls-1" x1="18.67" y1="168.65" x2="214.67" y2="168.65"/><rect class="cls-2" x="18.67" y="165.65" width="196" height="5"/></symbol></defs><title>Kano_Store-Flags-1</title><use id="New_Symbol_3-3" data-name="New Symbol 3" width="234.57" height="234.79" transform="translate(0.25 0.22) scale(0.08)" xlink:href="#New_Symbol_3"/></svg>