<svg id="Layer_1" data-name="Layer 1" xmlns="http://www.w3.org/2000/svg" viewBox="0 0 20 20"><defs><style>.cls-1{fill:#0071bb;}.cls-2{fill:#fff;}.cls-3{fill:#ec1c24;}</style></defs><title>Kano_Store-Flags-1</title><circle class="cls-1" cx="9.98" cy="10.07" r="9.7"/><path class="cls-2" d="M17.87,15.71,4.36,2.17A9.75,9.75,0,0,0,2.23,4.24L15.79,17.84A9.75,9.75,0,0,0,17.87,15.71Z"/><path class="cls-3" d="M8,9.35,8,8,3.17,3.17q-.33.32-.63.68Z"/><path class="cls-3" d="M17.57,16.11,12.07,10.6l0,1.26,4.93,5Q17.28,16.48,17.57,16.11Z"/><path class="cls-2" d="M4.2,17.86,17.77,4.29a9.75,9.75,0,0,0-2.11-2.08L2.12,15.74A9.75,9.75,0,0,0,4.2,17.86Z"/><path class="cls-3" d="M16.06,2.51,12,6.58V7.9l4.78-4.77Q16.42,2.8,16.06,2.51Z"/><path class="cls-3" d="M3.8,17.54l4.36-4.36L8,12l-4.9,4.9Q3.44,17.25,3.8,17.54Z"/><path class="cls-2" d="M19.68,10.07a9.71,9.71,0,0,0-.32-2.49H.61a9.76,9.76,0,0,0-.06,4.72H19.42A9.72,9.72,0,0,0,19.68,10.07Z"/><path class="cls-2" d="M12.39.67a9.76,9.76,0,0,0-4.72,0V19.49a9.76,9.76,0,0,0,4.72,0Z"/><path class="cls-3" d="M11.64.51A9.76,9.76,0,0,0,8.42.5V19.64a9.76,9.76,0,0,0,3.22,0Z"/><path class="cls-3" d="M19.68,10.07a9.76,9.76,0,0,0-.15-1.73H.44a9.8,9.8,0,0,0,0,3.22H19.57A9.77,9.77,0,0,0,19.68,10.07Z"/></svg>