<svg id="Layer_1" data-name="Layer 1" xmlns="http://www.w3.org/2000/svg" xmlns:xlink="http://www.w3.org/1999/xlink" viewBox="0 0 20 20"><defs><style>.cls-1{fill:none;}.cls-2{clip-path:url(#clip-path);}.cls-3{fill:#fff;}.cls-4{fill:#ec1c24;}.cls-5{fill:#0071bb;}</style><clipPath id="clip-path"><circle class="cls-1" cx="9.98" cy="10" r="9.69"/></clipPath></defs><title>Kano_Store-Flags-1</title><g class="cls-2"><circle class="cls-3" cx="9.98" cy="10.04" r="9.73"/><path class="cls-4" d="M1,13.79H19a9.65,9.65,0,0,0,.49-1.5H.51A9.66,9.66,0,0,0,1,13.79Zm9,6a9.68,9.68,0,0,0,5.18-1.49H4.79A9.68,9.68,0,0,0,10,19.77Zm9.7-10.48H.27q0,.37,0,.75t0,.75h19.4q0-.37,0-.75T19.68,9.29ZM3,16.78H17a9.77,9.77,0,0,0,1.18-1.5H1.78A9.77,9.77,0,0,0,3,16.78ZM19,6.3H1A9.65,9.65,0,0,0,.5,7.8H19.45A9.66,9.66,0,0,0,19,6.3Zm-2-3H3A9.78,9.78,0,0,0,1.77,4.8H18.18A9.78,9.78,0,0,0,17,3.31Zm-7-3a9.68,9.68,0,0,0-5.19,1.5H15.17A9.68,9.68,0,0,0,10,.31Z"/><path class="cls-5" d="M10,.31A9.73,9.73,0,0,0,.24,10q0,.38,0,.76H10Z"/><path class="cls-3" d="M-.06,6.46-.23,6.1l-.18.36-.4.06.29.28-.07.4L-.23,7l.36.19L.05,6.8l.29-.28ZM7.52,5.18l-.18-.36-.18.36-.4.06.29.28L7,5.91l.36-.19.36.19-.07-.4.29-.28ZM2.11,6.46,1.93,6.1l-.18.36-.4.06.29.28-.07.4L1.93,7l.36.19-.07-.4.29-.28ZM-.23,3.53l-.18.36L-.81,4l.29.28-.07.4.36-.19.36.19-.07-.4L.34,4l-.4-.06ZM4.28,6.46,4.1,6.1l-.18.36-.4.06.29.28-.07.4L4.1,7l.36.19-.07-.4.29-.28Zm2.17,0L6.27,6.1l-.18.36-.4.06L6,6.8l-.07.4L6.27,7l.36.19-.07-.4.29-.28Zm-.92-.55-.07-.4.29-.28-.4-.06-.18-.36L5,5.18l-.4.06.29.28-.07.4.36-.19Zm.92-2-.18-.36-.18.36L5.7,4,6,4.23l-.07.4.36-.19.36.19-.07-.4L6.85,4Zm-5.26,2-.07-.4.29-.28L1,5.18.84,4.81l-.18.36-.4.06.29.28-.07.4.36-.19Zm3.09-2L4.1,3.53l-.18.36L3.53,4l.29.28-.07.4.36-.19.36.19-.07-.4L4.68,4Zm-.92,2-.07-.4.29-.28-.4-.06L3,4.81l-.18.36-.4.06.29.28-.07.4L3,5.72ZM1.19.78,1.13.39,1.41.1,1,0H1L.54.46.48.78.84.59ZM7.52,2.61l-.18-.36-.18.36-.4.06.29.28L7,3.35l.36-.19.36.19-.07-.4.29-.28ZM2.11,9l-.18-.36L1.76,9l-.4.06.29.28-.07.4.36-.19.36.19-.07-.4.29-.28ZM6.45,9l-.18-.36L6.09,9l-.4.06L6,9.36l-.07.4.36-.19.36.19-.07-.4.29-.28ZM8.62,9l-.18-.36L8.26,9l-.4.06.29.28-.07.4.36-.19.36.19-.07-.4L9,9.08ZM6.45,1.33,6.27,1l-.18.36-.4.06L6,1.67l-.07.4.36-.19.36.19-.07-.4.29-.28ZM4.28,9,4.1,8.66,3.93,9l-.4.06.29.28-.07.4.36-.19.36.19-.07-.4.29-.28ZM-1,3.35-1,2.95l.29-.28-.4-.06-.09-.19q-.2.28-.38.57l-.06.36.36-.19Zm.74-1.47.36.19-.07-.4.29-.28-.4-.06-.09-.18q-.22.23-.42.48l0,0-.07.4ZM-2.76,7.19-2.4,7l.36.19-.07-.4.29-.28-.4-.06L-2.4,6.1l-.18.36-.4.06.29.28ZM-1,8.08l.29-.28-.4-.06-.18-.36-.18.36-.4.06.29.28-.07.4.36-.19.36.19Zm1,.94-.18-.36L-.41,9l-.4.06.29.28-.07.4.36-.19.36.19-.07-.4.29-.28ZM4.28,1.33,4.1,1l-.18.36-.4.06.29.28-.07.4.36-.19.36.19-.07-.4.29-.28ZM2.72.39l-.07.4L3,.59l.36.19L3.29.39,3.58.1,3.18,0,3-.31,2.83,0,2.43.1Zm2.17,0-.07.4L5.17.59l.36.19L5.46.39,5.75.1,5.35,0,5.17-.31,5,0,4.6.1ZM3.75-.5,4.1-.69l.36.19L4.39-.9l.29-.28-.4-.06L4.1-1.6l-.18.36-.4.06.29.28ZM7.05.39,7,.78,7.34.59,7.7.78,7.63.39,7.92.1,7.52,0,7.34-.31,7.16,0,6.77.1ZM5.92-.5l.36-.19.36.19L6.56-.9l.29-.28-.4-.06L6.27-1.6l-.18.36-.4.06L6-.9ZM-2.22,9l-.18-.36L-2.58,9l-.4.06.29.28-.07.4.36-.19.36.19-.07-.4.29-.28Zm7.4-6.77L5,2.61l-.4.06.29.28-.07.4.36-.19.36.19-.07-.4.29-.28-.4-.06ZM8.08-.5l.36-.19.36.19L8.73-.9,9-1.18l-.4-.06L8.44-1.6l-.18.36-.4.06.29.28ZM2.29-.5,2.22-.9,2.35-1Q2-.8,1.66-.54l.27-.14ZM-2,4.63l-.07-.4L-1.83,4l-.4-.06,0,0q-.18.33-.33.68l.17-.09ZM8.44,1l-.18.36-.4.06.29.28-.07.4.36-.19.36.19-.07-.4L9,1.39l-.4-.06Zm-6.33.36L1.93,1l-.18.36-.4.06.29.28-.07.4.36-.19.36.19-.07-.4.29-.28ZM-1.33,5.72l.36.19L-1,5.51l.29-.28-.4-.06-.18-.36-.18.36-.4.06.29.28-.07.4ZM.84,2.25l-.18.36-.4.06.29.28-.07.4.36-.19.36.19-.07-.4.29-.28L1,2.61ZM2.11,3.89l-.18-.36-.18.36L1.36,4l.29.28-.07.4.36-.19.36.19-.07-.4L2.51,4Zm6.33-.36-.18.36L7.86,4l.29.28-.07.4.36-.19.36.19-.07-.4L9,4l-.4-.06ZM3,2.25l-.18.36-.4.06.29.28-.07.4L3,3.16l.36.19-.07-.4.29-.28-.4-.06ZM1.13,8.08l.29-.28L1,7.74.84,7.38l-.18.36-.4.06.29.28-.07.4.36-.19.36.19Zm2.17,0,.29-.28-.4-.06L3,7.38l-.18.36-.4.06.29.28-.07.4L3,8.29l.36.19Zm5.15-2-.18.36-.4.06.29.28-.07.4L8.44,7l.36.19-.07-.4L9,6.51l-.4-.06Zm-.81,2,.29-.28-.4-.06-.18-.36-.18.36-.4.06.29.28L7,8.47l.36-.19.36.19Zm-2.17,0,.29-.28-.4-.06-.18-.36L5,7.74l-.4.06.29.28-.07.4.36-.19.36.19Z"/></g></svg>